<svg width="41" height="38" viewBox="0 0 41 38" fill="none" xmlns="http://www.w3.org/2000/svg">
<path d="M0 8C0 3.58172 3.58172 0 8 0H33C37.4183 0 41 3.58172 41 8V30C41 34.4183 37.4183 38 33 38H8C3.58172 38 0 34.4183 0 30V8Z" fill="#EEF2FF"/>
<path d="M9.592 29.472C9 29.472 8.576 29.344 8.32 29.088C8.064 28.816 7.936 28.312 7.936 27.576C7.936 27.08 7.984 26.448 8.08 25.68C8.192 24.896 8.368 23.824 8.608 22.464C9.024 19.952 9.352 17.776 9.592 15.936C9.736 14.784 9.808 13.824 9.808 13.056C9.808 12.336 9.544 11.976 9.016 11.976C8.6 11.976 8.096 12.192 7.504 12.624C6.928 13.04 6.288 13.712 5.584 14.64C5.36 14.944 5.112 15.096 4.84 15.096C4.616 15.096 4.416 14.992 4.24 14.784C4.08 14.56 4 14.312 4 14.04C4 13.784 4.048 13.528 4.144 13.272C4.256 13 4.432 12.696 4.672 12.36C5.44 11.288 6.296 10.464 7.24 9.888C8.184 9.296 9.128 9 10.072 9C10.952 9 11.624 9.28 12.088 9.84C12.568 10.4 12.808 11.216 12.808 12.288C12.808 12.72 12.768 13.232 12.688 13.824C12.608 14.4 12.536 14.872 12.472 15.24C12.408 15.608 12.36 15.864 12.328 16.008C13.24 13.4 14.264 11.584 15.4 10.56C16.536 9.52 17.784 9 19.144 9C20.184 9 21 9.368 21.592 10.104C22.2 10.84 22.504 11.88 22.504 13.224C22.504 13.752 22.432 14.408 22.288 15.192C23.088 12.984 24.024 11.4 25.096 10.44C26.168 9.48 27.4 9 28.792 9C29.912 9 30.768 9.36 31.36 10.08C31.968 10.8 32.272 11.808 32.272 13.104C32.272 13.808 32.168 14.664 31.96 15.672L30.496 22.536C30.336 23.336 30.256 24.024 30.256 24.6C30.256 25.272 30.408 25.776 30.712 26.112C31.032 26.448 31.472 26.616 32.032 26.616C32.56 26.616 33.072 26.44 33.568 26.088C34.08 25.736 34.68 25.152 35.368 24.336C35.56 24.112 35.776 24 36.016 24C36.224 24 36.384 24.096 36.496 24.288C36.624 24.48 36.688 24.744 36.688 25.08C36.688 25.704 36.536 26.2 36.232 26.568C35.4 27.576 34.576 28.312 33.76 28.776C32.944 29.24 32.088 29.472 31.192 29.472C29.832 29.472 28.768 29.072 28 28.272C27.232 27.456 26.848 26.368 26.848 25.008C26.848 24.064 27.04 22.696 27.424 20.904L28.384 16.512C28.416 16.368 28.472 16.112 28.552 15.744C28.632 15.376 28.696 15.032 28.744 14.712C28.792 14.376 28.816 14.048 28.816 13.728C28.816 13.168 28.704 12.752 28.48 12.48C28.272 12.192 27.968 12.048 27.568 12.048C26.816 12.048 26.024 12.536 25.192 13.512C24.376 14.472 23.592 16.072 22.84 18.312C22.104 20.552 21.504 23.464 21.04 27.048C20.928 28.008 20.728 28.656 20.44 28.992C20.168 29.312 19.72 29.472 19.096 29.472C18.552 29.472 18.152 29.344 17.896 29.088C17.656 28.832 17.536 28.352 17.536 27.648C17.536 26.992 17.624 26.136 17.8 25.08C17.976 24.008 18.2 22.752 18.472 21.312C19.208 17.44 19.576 14.944 19.576 13.824C19.576 13.216 19.456 12.768 19.216 12.48C18.992 12.192 18.648 12.048 18.184 12.048C17.4 12.048 16.592 12.496 15.76 13.392C14.928 14.272 14.112 15.848 13.312 18.12C12.528 20.376 11.872 23.432 11.344 27.288C11.232 28.104 11.064 28.672 10.84 28.992C10.632 29.312 10.216 29.472 9.592 29.472Z" fill="#4E5CA6"/>
</svg>
