<svg width="137" height="38" viewBox="0 0 137 38" fill="none" xmlns="http://www.w3.org/2000/svg">
<path d="M0 8C0 3.58172 3.58172 0 8 0H33C37.4183 0 41 3.58172 41 8V30C41 34.4183 37.4183 38 33 38H8C3.58172 38 0 34.4183 0 30V8Z" fill="#EEF2FF"/>
<path d="M10.568 30.12C9.976 30.12 9.552 29.992 9.296 29.736C9.04 29.464 8.912 28.96 8.912 28.224C8.912 27.728 8.96 27.096 9.056 26.328C9.168 25.544 9.344 24.472 9.584 23.112C10 20.6 10.328 18.424 10.568 16.584C10.712 15.432 10.784 14.472 10.784 13.704C10.784 12.984 10.52 12.624 9.992 12.624C9.576 12.624 9.072 12.84 8.48 13.272C7.904 13.688 7.264 14.36 6.56 15.288C6.336 15.592 6.088 15.744 5.816 15.744C5.592 15.744 5.392 15.64 5.216 15.432C5.056 15.208 4.976 14.96 4.976 14.688C4.976 14.432 5.024 14.176 5.12 13.92C5.232 13.648 5.408 13.344 5.648 13.008C6.416 11.936 7.272 11.112 8.216 10.536C9.16 9.944 10.104 9.648 11.048 9.648C11.928 9.648 12.6 9.928 13.064 10.488C13.544 11.048 13.784 11.864 13.784 12.936C13.784 13.368 13.744 13.88 13.664 14.472C13.584 15.048 13.512 15.52 13.448 15.888C13.384 16.256 13.336 16.512 13.304 16.656C14.216 14.048 15.24 12.232 16.376 11.208C17.512 10.168 18.76 9.648 20.12 9.648C21.16 9.648 21.976 10.016 22.568 10.752C23.176 11.488 23.48 12.528 23.48 13.872C23.48 14.4 23.408 15.056 23.264 15.84C24.064 13.632 25 12.048 26.072 11.088C27.144 10.128 28.376 9.648 29.768 9.648C30.888 9.648 31.744 10.008 32.336 10.728C32.944 11.448 33.248 12.456 33.248 13.752C33.248 14.456 33.144 15.312 32.936 16.32L31.472 23.184C31.312 23.984 31.232 24.672 31.232 25.248C31.232 25.92 31.384 26.424 31.688 26.76C32.008 27.096 32.448 27.264 33.008 27.264C33.536 27.264 34.048 27.088 34.544 26.736C35.056 26.384 35.656 25.8 36.344 24.984C36.536 24.76 36.752 24.648 36.992 24.648C37.2 24.648 37.36 24.744 37.472 24.936C37.6 25.128 37.664 25.392 37.664 25.728C37.664 26.352 37.512 26.848 37.208 27.216C36.376 28.224 35.552 28.96 34.736 29.424C33.92 29.888 33.064 30.12 32.168 30.12C30.808 30.12 29.744 29.72 28.976 28.92C28.208 28.104 27.824 27.016 27.824 25.656C27.824 24.712 28.016 23.344 28.4 21.552L29.36 17.16C29.392 17.016 29.448 16.76 29.528 16.392C29.608 16.024 29.672 15.68 29.72 15.36C29.768 15.024 29.792 14.696 29.792 14.376C29.792 13.816 29.68 13.4 29.456 13.128C29.248 12.84 28.944 12.696 28.544 12.696C27.792 12.696 27 13.184 26.168 14.16C25.352 15.12 24.568 16.72 23.816 18.96C23.08 21.2 22.48 24.112 22.016 27.696C21.904 28.656 21.704 29.304 21.416 29.64C21.144 29.96 20.696 30.12 20.072 30.12C19.528 30.12 19.128 29.992 18.872 29.736C18.632 29.48 18.512 29 18.512 28.296C18.512 27.64 18.6 26.784 18.776 25.728C18.952 24.656 19.176 23.4 19.448 21.96C20.184 18.088 20.552 15.592 20.552 14.472C20.552 13.864 20.432 13.416 20.192 13.128C19.968 12.84 19.624 12.696 19.16 12.696C18.376 12.696 17.568 13.144 16.736 14.04C15.904 14.92 15.088 16.496 14.288 18.768C13.504 21.024 12.848 24.08 12.32 27.936C12.208 28.752 12.04 29.32 11.816 29.64C11.608 29.96 11.192 30.12 10.568 30.12Z" fill="#4E5CA6"/>
<path d="M67.416 26.16C67.176 25.712 67.024 25.216 66.96 24.672C66.896 24.112 66.864 23.344 66.864 22.368C66.864 21.44 66.736 20.632 66.48 19.944C66.224 19.256 65.696 18.912 64.896 18.912C64.592 18.912 64.288 19.008 63.984 19.2C63.696 19.376 63.48 19.6 63.336 19.872C63.112 20.304 62.96 20.776 62.88 21.288C62.8 21.784 62.76 22.36 62.76 23.016C62.76 23.432 62.784 23.856 62.832 24.288C62.832 24.416 62.84 24.624 62.856 24.912C62.888 25.184 62.904 25.432 62.904 25.656C62.904 26.616 62.568 27.096 61.896 27.096C61.016 27.096 60.552 26.632 60.504 25.704C60.504 25.048 60.512 24.696 60.528 24.648V23.616C60.528 23.04 60.504 22.48 60.456 21.936C60.408 21.392 60.352 20.984 60.288 20.712C60.144 20.184 59.952 19.776 59.712 19.488C59.488 19.2 59.128 19.056 58.632 19.056C57.928 19.056 57.36 19.36 56.928 19.968C56.624 20.448 56.424 21.032 56.328 21.72C56.232 22.6 56.16 23.296 56.112 23.808C56.08 24.304 56.064 24.88 56.064 25.536C56.064 26 55.984 26.376 55.824 26.664C55.68 26.952 55.4 27.096 54.984 27.096C54.68 27.096 54.36 27.016 54.024 26.856C53.704 26.68 53.544 26.448 53.544 26.16C53.544 25.856 53.576 25.552 53.64 25.248C53.784 24.336 53.856 22.704 53.856 20.352C53.856 19.968 53.76 19.6 53.568 19.248C53.392 18.88 53.176 18.696 52.92 18.696C52.856 18.696 52.736 18.728 52.56 18.792C52.4 18.856 52.28 18.888 52.2 18.888C51.992 18.888 51.8 18.792 51.624 18.6C51.464 18.408 51.384 18.248 51.384 18.12C51.384 17.72 51.576 17.384 51.96 17.112C52.36 16.824 52.776 16.68 53.208 16.68C53.8 16.68 54.304 16.864 54.72 17.232C55.136 17.6 55.456 18.112 55.68 18.768C56.048 18.128 56.544 17.616 57.168 17.232C57.792 16.832 58.488 16.632 59.256 16.632C59.736 16.632 60.12 16.696 60.408 16.824C60.712 16.936 60.96 17.104 61.152 17.328C61.344 17.536 61.592 17.856 61.896 18.288C62.296 17.776 62.808 17.376 63.432 17.088C64.072 16.8 64.728 16.656 65.4 16.656C66.2 16.656 66.92 16.984 67.56 17.64C68.2 18.28 68.632 19.024 68.856 19.872C68.968 20.304 69.024 21.136 69.024 22.368L69.12 23.76C69.2 24.592 69.472 25.096 69.936 25.272C70.48 25.432 70.752 25.6 70.752 25.776C70.752 26.16 70.656 26.44 70.464 26.616C70.32 26.712 70.12 26.816 69.864 26.928C69.608 27.04 69.408 27.096 69.264 27.096C68.4 27.096 67.784 26.784 67.416 26.16Z" fill="#4E5CA6"/>
<path d="M81.8385 19.296C81.9665 19.52 82.0705 19.848 82.1505 20.28C82.2305 20.696 82.2705 21.072 82.2705 21.408C82.2705 22.032 82.1345 22.92 81.8625 24.072C80.7585 26.088 79.1265 27.096 76.9665 27.096C76.1665 27.096 75.3505 26.832 74.5185 26.304C73.6865 25.776 73.1105 25.168 72.7905 24.48C72.3585 23.104 72.1425 22.232 72.1425 21.864C72.1425 21.224 72.2785 20.544 72.5505 19.824C72.8385 19.104 73.1985 18.48 73.6305 17.952C73.9025 17.584 74.3905 17.272 75.0945 17.016C75.7985 16.744 76.4385 16.608 77.0145 16.608C78.1345 16.608 79.0865 16.824 79.8705 17.256C80.6545 17.672 81.3105 18.352 81.8385 19.296ZM79.7505 23.16C79.8305 22.952 79.8705 22.416 79.8705 21.552C79.8705 21.088 79.7825 20.632 79.6065 20.184C79.4465 19.736 79.2065 19.352 78.8865 19.032C78.8545 19 78.7665 18.952 78.6225 18.888C78.4785 18.808 78.2785 18.736 78.0225 18.672C77.7825 18.592 77.5025 18.552 77.1825 18.552C76.2865 18.552 75.6305 18.912 75.2145 19.632C74.7985 20.352 74.5905 21.168 74.5905 22.08C74.5905 22.24 74.6305 22.544 74.7105 22.992C74.8065 23.44 74.8865 23.72 74.9505 23.832C74.9985 23.944 75.1185 24.104 75.3105 24.312C75.5185 24.504 75.7665 24.68 76.0545 24.84C76.3585 24.984 76.6705 25.056 76.9905 25.056C77.7105 25.056 78.2865 24.888 78.7185 24.552C79.1505 24.2 79.4945 23.736 79.7505 23.16Z" fill="#4E5CA6"/>
<path d="M84.7118 18.576C84.2958 18.288 84.0878 17.984 84.0878 17.664C84.0878 17.44 84.1837 17.232 84.3757 17.04C84.5677 16.848 84.8558 16.752 85.2398 16.752C85.6878 16.752 86.0878 16.872 86.4398 17.112C86.8078 17.336 87.0637 17.664 87.2077 18.096C87.5757 17.664 87.9917 17.32 88.4557 17.064C88.9357 16.808 89.4238 16.68 89.9198 16.68C90.5118 16.68 91.0477 16.84 91.5277 17.16C92.0077 17.48 92.2477 17.912 92.2477 18.456C92.2477 18.76 92.1118 19.072 91.8398 19.392C91.5838 19.712 91.3198 19.872 91.0478 19.872C90.9038 19.872 90.7757 19.84 90.6637 19.776C90.5677 19.696 90.4477 19.584 90.3037 19.44C90.1437 19.28 90.0078 19.168 89.8958 19.104C89.7838 19.024 89.6557 18.984 89.5117 18.984C89.2557 18.984 89.0157 19.024 88.7917 19.104C88.5677 19.184 88.4157 19.28 88.3357 19.392C88.0797 19.792 87.8878 20.152 87.7598 20.472C87.6478 20.792 87.5918 21.136 87.5918 21.504C87.5918 21.776 87.5837 21.992 87.5677 22.152L87.5437 23.52C87.5437 23.728 87.5517 23.96 87.5677 24.216C87.5837 24.472 87.5998 24.664 87.6158 24.792C87.6638 25.224 87.6878 25.64 87.6878 26.04C87.6878 26.312 87.5837 26.552 87.3757 26.76C87.1677 26.968 86.9117 27.072 86.6077 27.072C86.1277 27.072 85.7758 26.984 85.5518 26.808C85.3278 26.616 85.2158 26.272 85.2158 25.776L85.1917 24.24C85.1757 23.936 85.1677 23.504 85.1677 22.944L85.1917 21.36C85.2237 20.592 85.2398 19.968 85.2398 19.488C85.2398 19.312 85.1998 19.152 85.1198 19.008C85.0558 18.864 84.9198 18.72 84.7118 18.576Z" fill="#4E5CA6"/>
<path d="M93.7106 18.696C93.4866 18.664 93.3026 18.568 93.1586 18.408C93.0306 18.248 92.9666 18.056 92.9666 17.832C92.9666 17.72 92.9906 17.6 93.0386 17.472C93.1026 17.344 93.1906 17.232 93.3026 17.136C93.5106 16.96 93.7906 16.792 94.1426 16.632C94.5106 16.488 94.7746 16.312 94.9346 16.104C95.0946 15.896 95.1746 15.504 95.1746 14.928C95.1746 14.688 95.1586 14.48 95.1266 14.304C95.1106 14.128 95.1026 13.992 95.1026 13.896C95.1026 13.544 95.2306 13.28 95.4866 13.104C95.7426 12.928 96.0386 12.84 96.3746 12.84C96.7906 12.84 97.0706 12.944 97.2146 13.152C97.3746 13.36 97.4546 13.744 97.4546 14.304C97.4546 14.848 97.4306 15.32 97.3826 15.72C97.3346 16.104 97.2306 16.448 97.0706 16.752C97.2946 16.752 97.6626 16.736 98.1746 16.704C98.8786 16.672 99.3666 16.656 99.6386 16.656C99.9106 16.656 100.151 16.728 100.359 16.872C100.567 17 100.671 17.184 100.671 17.424C100.671 17.76 100.599 18.008 100.455 18.168C100.311 18.328 100.103 18.432 99.8306 18.48C99.1746 18.656 98.2466 18.76 97.0466 18.792C97.0146 19.416 96.9986 20.096 96.9986 20.832C96.9986 22.064 97.0706 23.008 97.2146 23.664C97.3106 24.176 97.4706 24.552 97.6946 24.792C97.9346 25.016 98.2866 25.128 98.7506 25.128C98.9906 25.128 99.1826 25.096 99.3266 25.032C99.4866 24.968 99.5746 24.928 99.5906 24.912C99.7826 24.8 99.9586 24.744 100.119 24.744C100.343 24.744 100.503 24.816 100.599 24.96C100.711 25.104 100.767 25.296 100.767 25.536C100.767 25.984 100.527 26.36 100.047 26.664C99.5666 26.952 98.9506 27.096 98.1986 27.096C97.3506 27.096 96.6306 26.848 96.0386 26.352C95.4626 25.84 95.1186 25.168 95.0066 24.336C94.8466 23.584 94.7666 22.528 94.7666 21.168C94.7666 20.576 94.7986 19.784 94.8626 18.792L93.7106 18.696Z" fill="#4E5CA6"/>
<path d="M102.446 21.504C102.446 20.528 102.662 19.72 103.094 19.08C103.526 18.424 104.126 17.808 104.894 17.232C105.118 17.072 105.494 16.936 106.022 16.824C106.55 16.696 107.014 16.632 107.414 16.632C107.894 16.632 108.398 16.736 108.926 16.944C109.47 17.136 109.91 17.36 110.246 17.616C110.838 18.048 111.246 18.552 111.47 19.128C111.694 19.688 111.806 20.36 111.806 21.144C111.806 21.48 111.614 21.808 111.23 22.128C110.862 22.432 110.462 22.584 110.03 22.584L109.118 22.56C108.654 22.56 107.99 22.576 107.126 22.608L106.622 22.632C106.27 22.664 106.006 22.68 105.83 22.68C105.574 22.68 105.222 22.648 104.774 22.584C104.838 23.336 105.118 23.928 105.614 24.36C106.11 24.776 106.646 24.984 107.222 24.984C108.23 24.984 108.934 24.784 109.334 24.384C109.67 24.144 109.894 23.992 110.006 23.928C110.118 23.864 110.294 23.832 110.534 23.832C110.79 23.832 111.014 23.952 111.206 24.192C111.398 24.432 111.494 24.672 111.494 24.912C111.494 25.184 111.326 25.464 110.99 25.752C110.67 26.024 110.23 26.312 109.67 26.616C109.366 26.744 108.95 26.856 108.422 26.952C107.894 27.048 107.454 27.096 107.102 27.096C106.542 27.096 105.918 26.936 105.23 26.616C104.542 26.28 104.03 25.912 103.694 25.512C103.358 25.112 103.062 24.544 102.806 23.808C102.566 23.072 102.446 22.304 102.446 21.504ZM107.222 20.856C108.358 20.856 109.19 20.816 109.718 20.736C109.686 20.272 109.542 19.896 109.286 19.608C109.03 19.304 108.678 19.048 108.23 18.84C108.086 18.776 107.958 18.728 107.846 18.696C107.734 18.664 107.606 18.648 107.462 18.648C106.726 18.648 106.102 18.848 105.59 19.248C105.094 19.648 104.798 20.16 104.702 20.784C105.502 20.832 106.342 20.856 107.222 20.856Z" fill="#4E5CA6"/>
<path d="M122.381 18.792C122.045 19.368 121.589 19.96 121.013 20.568C120.437 21.176 119.701 21.896 118.805 22.728C117.957 23.528 117.485 23.984 117.389 24.096L116.573 24.84C116.893 24.904 117.493 24.936 118.373 24.936C118.725 24.936 119.237 24.872 119.909 24.744C120.549 24.616 121.021 24.552 121.325 24.552C121.581 24.552 121.869 24.592 122.189 24.672C122.525 24.752 122.837 24.872 123.125 25.032C123.269 25.096 123.389 25.224 123.485 25.416C123.581 25.592 123.629 25.76 123.629 25.92C123.629 26.128 123.557 26.36 123.413 26.616C123.269 26.872 123.101 27 122.909 27C122.733 27 122.501 26.968 122.213 26.904C121.781 26.824 121.477 26.784 121.301 26.784C120.741 26.784 119.997 26.824 119.069 26.904C117.789 27 116.845 27.048 116.237 27.048C115.469 27.048 114.861 26.952 114.413 26.76C113.981 26.568 113.765 26.208 113.765 25.68C113.765 25.28 113.965 24.824 114.365 24.312C114.765 23.784 115.253 23.232 115.829 22.656L116.165 22.296C116.421 22.04 116.853 21.656 117.461 21.144C118.069 20.616 118.533 20.2 118.853 19.896C119.173 19.576 119.437 19.24 119.645 18.888L115.805 18.912C115.181 18.912 114.717 18.84 114.413 18.696C114.125 18.552 113.981 18.28 113.981 17.88C113.981 17.656 114.061 17.448 114.221 17.256C114.381 17.048 114.589 16.92 114.845 16.872C115.421 16.792 116.597 16.752 118.373 16.752C120.149 16.752 121.373 16.84 122.045 17.016C122.221 17.08 122.357 17.2 122.453 17.376C122.565 17.536 122.621 17.704 122.621 17.88C122.621 18.168 122.541 18.472 122.381 18.792Z" fill="#4E5CA6"/>
<path d="M136.105 25.848C136.105 26.2 135.913 26.496 135.529 26.736C135.145 26.976 134.793 27.096 134.473 27.096C133.881 27.096 133.401 27.024 133.033 26.88C132.681 26.72 132.345 26.432 132.025 26.016C131.625 26.384 131.066 26.664 130.346 26.856C129.626 27.032 128.962 27.12 128.354 27.12C127.362 27.12 126.538 26.856 125.882 26.328C125.242 25.784 124.922 24.992 124.922 23.952C124.922 23.504 125.057 23.056 125.329 22.608C125.601 22.144 125.938 21.776 126.338 21.504C126.77 21.216 127.257 21.024 127.801 20.928C128.345 20.816 128.977 20.76 129.697 20.76C130.033 20.76 130.434 20.824 130.898 20.952C131.362 21.08 131.729 21.216 132.001 21.36V20.976C132.001 20.112 131.786 19.52 131.354 19.2C130.938 18.864 130.265 18.696 129.337 18.696C129.049 18.696 128.786 18.744 128.546 18.84C128.322 18.92 128.058 19.04 127.754 19.2C127.466 19.36 127.194 19.44 126.938 19.44C126.714 19.44 126.497 19.352 126.289 19.176C126.081 18.984 125.978 18.784 125.978 18.576C125.978 17.904 126.394 17.416 127.226 17.112C128.074 16.792 128.938 16.632 129.818 16.632C130.266 16.632 130.778 16.728 131.354 16.92C131.93 17.096 132.418 17.344 132.818 17.664C133.298 18.064 133.665 18.544 133.921 19.104C134.193 19.664 134.329 20.272 134.329 20.928C134.329 21.136 134.313 21.448 134.281 21.864C134.249 22.312 134.234 22.696 134.234 23.016L134.21 23.664C134.178 24.016 134.161 24.296 134.161 24.504C134.161 24.696 134.226 24.864 134.354 25.008C134.498 25.136 134.665 25.2 134.857 25.2L135.529 25.176C135.705 25.176 135.842 25.248 135.938 25.392C136.05 25.52 136.105 25.672 136.105 25.848ZM128.354 25.224C129.042 25.224 129.617 25.152 130.081 25.008C130.545 24.864 131.106 24.6 131.762 24.216C131.826 23.944 131.865 23.584 131.882 23.136C131.002 22.72 130.273 22.512 129.697 22.512C129.153 22.512 128.714 22.536 128.378 22.584C128.042 22.616 127.737 22.752 127.465 22.992C127.194 23.232 127.058 23.616 127.058 24.144C127.058 24.448 127.202 24.704 127.49 24.912C127.794 25.12 128.082 25.224 128.354 25.224Z" fill="#4E5CA6"/>
</svg>
